<svg xmlns="http://www.w3.org/2000/svg" width="40" height="40" viewBox="0 0 40 40">
  <path id="Path_1" data-name="Path 1" d="M143.525,497.18a20.117,20.117,0,1,1-14.13-5.823A19.8,19.8,0,0,1,143.525,497.18Zm-7.23,26.807a14.628,14.628,0,0,0,5.118-4.649q-.376-3-4.509-4.6a18.458,18.458,0,0,0-15.023,0q-4.133,1.594-4.507,4.6a14.627,14.627,0,0,0,5.118,4.649,13.931,13.931,0,0,0,13.8,0Zm-11.128-24.927a5.962,5.962,0,0,0,4.228,10.233,5.963,5.963,0,1,0-4.228-10.233Z" transform="translate(-109.394 -491.357)" fill="#ce211f"/>
</svg>
