<svg xmlns="http://www.w3.org/2000/svg" width="32.357" height="23.099" viewBox="0 0 32.357 23.099"><defs><style>.a{fill:#525252;opacity:0.4;}</style></defs><path class="a" d="M9453.357-4524.9h0l-32.355-.009v-5.174l10.875-7.452,5.394,4.366,2.509,2.042,2.949-2.043h-.007l3.063-2.11,7.573,6.054v4.323Zm0-6.256h0l-5.953-4.761-1.54-1.239-2.645,1.834-3.372,2.313-5.39-4.368.017,0-2.515-2.059-2.823,1.957L9421-4531.9V-4548h30.849c.031,0,.062,0,.091,0h.021l.008,0h1.388v16.837Zm-13.545-12.576a2.26,2.26,0,0,0-2.256,2.258,2.259,2.259,0,0,0,2.256,2.256,2.26,2.26,0,0,0,2.259-2.256A2.261,2.261,0,0,0,9439.811-4543.734Z" transform="translate(-9421 4548)"/></svg>