<svg xmlns="http://www.w3.org/2000/svg" width="54" height="65.454" viewBox="0 0 54 65.454"><defs><style>.a{fill:#002d62;}</style></defs><path class="a" d="M8.264,65.454A3.369,3.369,0,0,1,4.91,62.1V49.09H7.691V60.546A2.2,2.2,0,0,0,9.9,62.754H48.928a2.2,2.2,0,0,0,2.209-2.209v-38.7H35.428a3.426,3.426,0,0,1-3.355-3.355V2.7H9.818A2.271,2.271,0,0,0,7.61,4.99V27.164H4.91V3.354A3.369,3.369,0,0,1,8.264,0H32.154L54,21.846V62.1a3.317,3.317,0,0,1-3.354,3.354ZM34.772,17.836a1.453,1.453,0,0,0,1.473,1.391H47.7L34.772,6.382ZM3.354,47.454A3.319,3.319,0,0,1,0,44.1V32.154A3.319,3.319,0,0,1,3.354,28.8H31.582a3.319,3.319,0,0,1,3.354,3.354V44.1a3.319,3.319,0,0,1-3.354,3.354Zm11.05-6.06a3.083,3.083,0,0,0,1.336,1.069,4.745,4.745,0,0,0,1.942.391,4,4,0,0,0,2.444-.682,2.235,2.235,0,0,0,.907-1.883,2.427,2.427,0,0,0-.743-1.8,5.8,5.8,0,0,0-2.368-1.212,5.131,5.131,0,0,1-1.336-.572.894.894,0,0,1-.455-.755.936.936,0,0,1,.388-.778,1.762,1.762,0,0,1,1.085-.3,1.65,1.65,0,0,1,1.123.353,1.251,1.251,0,0,1,.4.986h1.9a2.657,2.657,0,0,0-.428-1.485,2.826,2.826,0,0,0-1.2-1.013,4.174,4.174,0,0,0-1.765-.358,4.585,4.585,0,0,0-1.774.329,2.773,2.773,0,0,0-1.212.917,2.243,2.243,0,0,0-.422,1.337A2.571,2.571,0,0,0,15.8,38.233a9.59,9.59,0,0,0,1.568.632,5.023,5.023,0,0,1,1.371.609.981.981,0,0,1,.381.828.9.9,0,0,1-.381.771,1.782,1.782,0,0,1-1.06.276c-1.213,0-1.828-.515-1.828-1.53H13.944A2.754,2.754,0,0,0,14.4,41.395ZM7.358,33.9a3.535,3.535,0,0,0-1.343,1.558,5.572,5.572,0,0,0-.47,2.349v.564a4.925,4.925,0,0,0,1.019,3.285,3.491,3.491,0,0,0,2.8,1.2A3.886,3.886,0,0,0,11.979,42a3.285,3.285,0,0,0,1.1-2.349h-1.9a1.831,1.831,0,0,1-.5,1.247,1.886,1.886,0,0,1-1.317.4,1.6,1.6,0,0,1-1.432-.692,4.116,4.116,0,0,1-.454-2.19v-.7A3.844,3.844,0,0,1,7.961,35.6a1.622,1.622,0,0,1,1.425-.682,1.857,1.857,0,0,1,1.305.4,1.946,1.946,0,0,1,.5,1.3h1.9a3.526,3.526,0,0,0-1.13-2.406,3.783,3.783,0,0,0-2.578-.857A3.776,3.776,0,0,0,7.358,33.9Zm17.389,8.826h1.987l3.218-9.242h-2.12l-2.094,6.951-2.083-6.951H21.542Z"/></svg>