<svg xmlns="http://www.w3.org/2000/svg" width="54" height="65.455" viewBox="0 0 54 65.455"><defs><style>.a{fill:#002d62;}</style></defs><g transform="translate(-17 -10)"><path class="a" d="M4580.582-3996.618h-28.228a3.319,3.319,0,0,1-3.354-3.354v-11.946a3.319,3.319,0,0,1,3.354-3.354h28.228a3.319,3.319,0,0,1,3.354,3.354v11.946A3.319,3.319,0,0,1,4580.582-3996.618Zm-4.772-14.1a3.784,3.784,0,0,0-2.028.543,3.545,3.545,0,0,0-1.341,1.559,5.544,5.544,0,0,0-.471,2.348v.565a4.929,4.929,0,0,0,1.02,3.286,3.491,3.491,0,0,0,2.8,1.2,3.88,3.88,0,0,0,2.619-.857,3.288,3.288,0,0,0,1.1-2.349H4577.6a1.826,1.826,0,0,1-.5,1.248,1.893,1.893,0,0,1-1.317.4,1.6,1.6,0,0,1-1.431-.691,4.118,4.118,0,0,1-.453-2.19v-.7a3.837,3.837,0,0,1,.485-2.117,1.623,1.623,0,0,1,1.424-.682,1.857,1.857,0,0,1,1.306.4,1.941,1.941,0,0,1,.5,1.3h1.905a3.54,3.54,0,0,0-1.13-2.406A3.791,3.791,0,0,0,4575.81-4010.715Zm-8.88,0a3.846,3.846,0,0,0-2.054.556,3.685,3.685,0,0,0-1.39,1.594,5.576,5.576,0,0,0-.492,2.4v.457a5.446,5.446,0,0,0,.5,2.358,3.685,3.685,0,0,0,1.4,1.577,3.86,3.86,0,0,0,2.05.552,3.838,3.838,0,0,0,2.06-.559,3.647,3.647,0,0,0,1.38-1.586,5.591,5.591,0,0,0,.482-2.393v-.413a5.561,5.561,0,0,0-.491-2.4,3.683,3.683,0,0,0-1.391-1.594A3.838,3.838,0,0,0,4566.93-4010.715Zm-12.1.128v9.241h2.862a4.362,4.362,0,0,0,2.178-.558,3.825,3.825,0,0,0,1.5-1.555,4.869,4.869,0,0,0,.529-2.292v-.425a4.842,4.842,0,0,0-.54-2.3,3.853,3.853,0,0,0-1.5-1.561,4.337,4.337,0,0,0-2.18-.549Zm12.118,7.807a1.7,1.7,0,0,1-1.5-.78,3.953,3.953,0,0,1-.52-2.2v-.451a3.852,3.852,0,0,1,.527-2.187,1.7,1.7,0,0,1,1.479-.746,1.7,1.7,0,0,1,1.485.755,3.9,3.9,0,0,1,.521,2.21v.45a3.939,3.939,0,0,1-.521,2.194A1.682,1.682,0,0,1,4566.943-4002.781Zm-9.293-.094h-.92v-6.17h.94a2.07,2.07,0,0,1,1.708.726,3.374,3.374,0,0,1,.584,2.136v.489a3.312,3.312,0,0,1-.6,2.088A2.081,2.081,0,0,1,4557.649-4002.875Z" transform="translate(-4532 4054.073)"/><path class="a" d="M50.245,10H26.355A3.37,3.37,0,0,0,23,13.355V37.164h2.7V14.991A2.271,2.271,0,0,1,27.909,12.7H50.164V28.491a3.424,3.424,0,0,0,3.355,3.355H69.227v38.7a2.2,2.2,0,0,1-2.209,2.209H27.991a2.2,2.2,0,0,1-2.209-2.209V59.091H23V72.1a3.37,3.37,0,0,0,3.355,3.355H68.736A3.318,3.318,0,0,0,72.091,72.1V31.845Zm4.091,19.227a1.451,1.451,0,0,1-1.473-1.391V16.382L65.791,29.227Z" transform="translate(-1.091)"/></g></svg>