<svg xmlns="http://www.w3.org/2000/svg" width="54.001" height="65.454" viewBox="0 0 54.001 65.454"><defs><style>.a{fill:#002d62;}</style></defs><path class="a" d="M13795.264,239.455a3.371,3.371,0,0,1-3.355-3.356V223.091h2.782v11.456a2.2,2.2,0,0,0,2.209,2.209h39.026a2.2,2.2,0,0,0,2.21-2.209v-38.7h-15.708a3.427,3.427,0,0,1-3.355-3.356V176.7h-22.252a2.269,2.269,0,0,0-2.21,2.289v22.176h-2.7V177.353a3.368,3.368,0,0,1,3.355-3.352h23.892L13841,195.847V236.1a3.318,3.318,0,0,1-3.355,3.356Zm26.508-47.62a1.454,1.454,0,0,0,1.473,1.393h11.456l-12.929-12.845ZM13790,221.729a3,3,0,0,1-3-3v-13a3,3,0,0,1,3-3h38a3,3,0,0,1,3,3v13a3.006,3.006,0,0,1-3,3Zm21.783-13.829a3.565,3.565,0,0,0-1.341,1.556,5.56,5.56,0,0,0-.47,2.352v.566a4.929,4.929,0,0,0,1.019,3.283,3.489,3.489,0,0,0,2.792,1.2,3.9,3.9,0,0,0,2.623-.858,3.3,3.3,0,0,0,1.1-2.348h-1.9a1.806,1.806,0,0,1-.5,1.247,1.9,1.9,0,0,1-1.32.4,1.585,1.585,0,0,1-1.428-.695,4.124,4.124,0,0,1-.451-2.188v-.7a3.839,3.839,0,0,1,.482-2.119,1.624,1.624,0,0,1,1.428-.677,1.862,1.862,0,0,1,1.3.4,1.913,1.913,0,0,1,.5,1.3h1.907a3.507,3.507,0,0,0-1.133-2.4,4.2,4.2,0,0,0-4.605-.316Zm-8.9.014a3.7,3.7,0,0,0-1.393,1.591,5.633,5.633,0,0,0-.49,2.4v.459a5.413,5.413,0,0,0,.5,2.355,3.713,3.713,0,0,0,1.4,1.581,4.083,4.083,0,0,0,4.113-.007,3.666,3.666,0,0,0,1.379-1.587,5.61,5.61,0,0,0,.482-2.393V211.9a5.6,5.6,0,0,0-.489-2.4,3.736,3.736,0,0,0-1.394-1.591,4.069,4.069,0,0,0-4.105,0Zm20.96,8.813h2.216l-2.762-4.658,2.692-4.582h-2.191l-1.73,3.185-1.733-3.185h-2.188l2.689,4.582-2.759,4.658h2.213l1.778-3.237Zm-31.013,0h2.862a4.358,4.358,0,0,0,2.178-.559,3.8,3.8,0,0,0,1.5-1.556,4.839,4.839,0,0,0,.528-2.289V211.9a4.826,4.826,0,0,0-.538-2.3,3.867,3.867,0,0,0-1.5-1.56,4.323,4.323,0,0,0-2.185-.549h-2.842Zm10.622-2.216a3.958,3.958,0,0,1-.524-2.2v-.452a3.893,3.893,0,0,1,.528-2.188,1.7,1.7,0,0,1,1.477-.743,1.722,1.722,0,0,1,1.49.754,3.934,3.934,0,0,1,.518,2.209v.452a3.935,3.935,0,0,1-.518,2.192,1.821,1.821,0,0,1-2.971-.028Zm-8.719.684v-6.166h.938a2.08,2.08,0,0,1,1.709.723,3.38,3.38,0,0,1,.587,2.14v.486a3.338,3.338,0,0,1-.6,2.088,2.081,2.081,0,0,1-1.709.729Z" transform="translate(-13787 -174.001)"/></svg>