<svg xmlns="http://www.w3.org/2000/svg" width="17.536" height="17.536" viewBox="0 0 17.536 17.536"><defs><style>.a{fill:#1595d3;}</style></defs><g transform="translate(-412 -314)"><path class="a" d="M196.066,520.373a1.95,1.95,0,0,1,1.964,1.964v13.608a1.877,1.877,0,0,1-.571,1.416,1.934,1.934,0,0,1-1.393.548H182.458a1.95,1.95,0,0,1-1.964-1.964V522.337a1.95,1.95,0,0,1,1.964-1.964Zm-11.69,11.646v2.008h2.009l5.937-5.936-2.01-2.009Zm9.453-5.481a.5.5,0,0,0,0-.73l-1.233-1.233a.5.5,0,0,0-.731,0l-1.005.958,2.01,2.01Z" transform="translate(231.506 -206.373)"/></g></svg>