<svg xmlns="http://www.w3.org/2000/svg" width="54.001" height="65.454" viewBox="0 0 54.001 65.454"><defs><style>.a{fill:#002d62;}</style></defs><path class="a" d="M13795.264,239.455a3.371,3.371,0,0,1-3.355-3.356V223.091h2.782v11.456a2.2,2.2,0,0,0,2.209,2.209h39.026a2.2,2.2,0,0,0,2.21-2.209v-38.7h-15.708a3.427,3.427,0,0,1-3.355-3.356V176.7h-22.252a2.269,2.269,0,0,0-2.21,2.289v22.176h-2.7V177.353a3.368,3.368,0,0,1,3.355-3.352h23.892L13841,195.847V236.1a3.318,3.318,0,0,1-3.355,3.356Zm26.508-47.62a1.454,1.454,0,0,0,1.473,1.393h11.456l-12.929-12.845ZM13790,221.729a3,3,0,0,1-3-3v-13a3,3,0,0,1,3-3h28a3,3,0,0,1,3,3v13a3.006,3.006,0,0,1-3,3Zm18.845-5h1.9v-3.779h3.661v-1.532h-3.661v-2.39h4.113v-1.539h-6.017Zm-8.614-7.7h2.792v7.7h1.9v-7.7h2.834v-1.539h-7.53Zm-3.984,4.318,1.729,3.383h2.05v-.087l-2-3.779a2.8,2.8,0,0,0,1.244-1,2.829,2.829,0,0,0,.409-1.581,2.533,2.533,0,0,0-.889-2.063,3.912,3.912,0,0,0-2.525-.726h-3.439v9.24h1.907v-3.383Zm-1.519-1.542v-2.775h1.532a1.543,1.543,0,0,1,1.14.375,1.416,1.416,0,0,1,.368,1.028,1.325,1.325,0,0,1-.39,1.007,1.59,1.59,0,0,1-1.115.365Z" transform="translate(-13787 -174.001)"/></svg>