<svg xmlns="http://www.w3.org/2000/svg" width="54.001" height="65.454" viewBox="0 0 54.001 65.454"><defs><style>.a{fill:#002d62;}</style></defs><path class="a" d="M13795.264,239.455a3.368,3.368,0,0,1-3.352-3.356V223.091h2.782v11.456a2.2,2.2,0,0,0,2.205,2.209h39.03a2.2,2.2,0,0,0,2.209-2.209v-38.7h-15.711a3.424,3.424,0,0,1-3.353-3.356V176.7h-22.255a2.269,2.269,0,0,0-2.21,2.289v22.176h-2.7V177.353a3.367,3.367,0,0,1,3.352-3.352h23.892L13841,195.847V236.1a3.318,3.318,0,0,1-3.355,3.356Zm26.511-47.62a1.452,1.452,0,0,0,1.473,1.393h11.453l-12.926-12.845Zm-31.419,29.62A3.321,3.321,0,0,1,13787,218.1V206.157a3.318,3.318,0,0,1,3.355-3.356h28.23a3.317,3.317,0,0,1,3.352,3.356V218.1a3.32,3.32,0,0,1-3.352,3.356Zm18.2-12.429h2.789v7.7h1.907v-7.7h2.831v-1.542h-7.527Zm-2.605,7.7h2.216l-2.762-4.658,2.692-4.585h-2.191l-1.733,3.189-1.73-3.189h-2.188l2.689,4.585-2.762,4.658h2.216l1.775-3.237Zm-13.7-7.7h2.793v7.7h1.9v-7.7h2.831v-1.542h-7.527Z" transform="translate(-13787 -174.001)"/></svg>