<svg xmlns="http://www.w3.org/2000/svg" width="54.001" height="65.454" viewBox="0 0 54.001 65.454"><defs><style>.a{fill:#002d62;}</style></defs><path class="a" d="M13795.264,239.455a3.371,3.371,0,0,1-3.355-3.356V223.091h2.782v11.456a2.2,2.2,0,0,0,2.209,2.209h39.026a2.2,2.2,0,0,0,2.21-2.209v-38.7h-15.708a3.427,3.427,0,0,1-3.355-3.356V176.7h-22.252a2.269,2.269,0,0,0-2.21,2.289v22.176h-2.7V177.353a3.368,3.368,0,0,1,3.355-3.352h23.892L13841,195.847V236.1a3.318,3.318,0,0,1-3.355,3.356Zm26.508-47.62a1.454,1.454,0,0,0,1.473,1.393h11.456l-12.929-12.845ZM13790,221.729a3,3,0,0,1-3-3v-13a3,3,0,0,1,3-3h28a3,3,0,0,1,3,3v13a3.006,3.006,0,0,1-3,3Zm18.2-6.336a3.065,3.065,0,0,0,1.337,1.07,4.709,4.709,0,0,0,1.942.393,3.969,3.969,0,0,0,2.441-.684,2.231,2.231,0,0,0,.907-1.879,2.425,2.425,0,0,0-.74-1.8,5.8,5.8,0,0,0-2.365-1.216,5.19,5.19,0,0,1-1.341-.57.891.891,0,0,1-.448-.754.929.929,0,0,1,.382-.778,1.788,1.788,0,0,1,1.087-.3,1.643,1.643,0,0,1,1.122.351,1.252,1.252,0,0,1,.4.987h1.9a2.7,2.7,0,0,0-.424-1.487,2.814,2.814,0,0,0-1.206-1.007,4.171,4.171,0,0,0-1.765-.361,4.586,4.586,0,0,0-1.771.33,2.8,2.8,0,0,0-1.216.917,2.254,2.254,0,0,0-.42,1.337,2.58,2.58,0,0,0,1.573,2.293,10.31,10.31,0,0,0,1.57.629,4.953,4.953,0,0,1,1.368.608.987.987,0,0,1,.383.83.9.9,0,0,1-.383.771,1.769,1.769,0,0,1-1.059.274c-1.213,0-1.827-.514-1.827-1.528h-1.914A2.774,2.774,0,0,0,13808.2,215.393Zm-7.114,1.334h5.95V215.2h-4.047v-7.708h-1.9Zm-4.95-3.234,1.775,3.234h2.216l-2.758-4.658,2.692-4.582h-2.2l-1.73,3.182-1.733-3.182h-2.188l2.692,4.582-2.762,4.658h2.217l1.774-3.234v0Z" transform="translate(-13787 -174.001)"/></svg>