<svg xmlns="http://www.w3.org/2000/svg" width="54.001" height="65.454" viewBox="0 0 54.001 65.454"><defs><style>.a{fill:#002d62;}</style></defs><path class="a" d="M13795.264,239.455a3.368,3.368,0,0,1-3.352-3.356V223.091h2.782v11.456a2.2,2.2,0,0,0,2.205,2.209h39.03a2.2,2.2,0,0,0,2.209-2.209v-38.7h-15.711a3.424,3.424,0,0,1-3.353-3.356V176.7h-22.255a2.269,2.269,0,0,0-2.21,2.289v22.176h-2.7V177.353a3.367,3.367,0,0,1,3.352-3.352h23.892L13841,195.847V236.1a3.318,3.318,0,0,1-3.355,3.356Zm26.511-47.62a1.452,1.452,0,0,0,1.473,1.393h11.453l-12.926-12.845ZM13790,221.729a3.006,3.006,0,0,1-3-3v-13a3,3,0,0,1,3-3h36a3,3,0,0,1,3,3v13a3.007,3.007,0,0,1-3,3Zm18.2-6.336a3.057,3.057,0,0,0,1.338,1.07,4.7,4.7,0,0,0,1.938.393,3.969,3.969,0,0,0,2.441-.684,2.224,2.224,0,0,0,.91-1.879,2.437,2.437,0,0,0-.743-1.806,5.842,5.842,0,0,0-2.365-1.212,5.075,5.075,0,0,1-1.338-.57.892.892,0,0,1-.455-.754.937.937,0,0,1,.386-.778,1.788,1.788,0,0,1,1.087-.3,1.656,1.656,0,0,1,1.126.351,1.253,1.253,0,0,1,.4.987h1.907a2.66,2.66,0,0,0-.431-1.487,2.827,2.827,0,0,0-1.2-1.011,4.146,4.146,0,0,0-1.765-.361,4.591,4.591,0,0,0-1.774.333,2.755,2.755,0,0,0-1.209.917,2.246,2.246,0,0,0-.424,1.337,2.563,2.563,0,0,0,1.573,2.289,9.488,9.488,0,0,0,1.57.632,4.94,4.94,0,0,1,1.372.611.975.975,0,0,1,.379.827.907.907,0,0,1-.379.775,1.816,1.816,0,0,1-1.062.271c-1.216,0-1.831-.514-1.831-1.528h-1.907A2.742,2.742,0,0,0,13808.2,215.393Zm13,1.334h2.216l-2.758-4.662,2.688-4.582h-2.192l-1.729,3.189-1.733-3.189h-2.188l2.688,4.582-2.758,4.662h2.213l1.778-3.237Zm-20.112,0h5.946V215.2h-4.043v-7.715h-1.9Zm-4.95-3.237,1.774,3.237h2.217l-2.766-4.662,2.7-4.582h-2.192l-1.729,3.189-1.737-3.189h-2.188l2.692,4.582-2.762,4.662h2.217l1.774-3.237Z" transform="translate(-13787 -174.001)"/></svg>