<svg xmlns="http://www.w3.org/2000/svg" width="54" height="65.455" viewBox="0 0 54 65.455"><defs><style>.a{fill:#002d62;}</style></defs><g transform="translate(-17 -10)"><path class="a" d="M4862.582-3996.618h-28.228a3.319,3.319,0,0,1-3.355-3.354v-11.945a3.319,3.319,0,0,1,3.355-3.354h28.228a3.319,3.319,0,0,1,3.354,3.354v11.945A3.319,3.319,0,0,1,4862.582-3996.618Zm-11.089-13.969v9.243h1.9v-3.257h1.669a3.893,3.893,0,0,0,2.574-.784,2.663,2.663,0,0,0,.929-2.142,3.037,3.037,0,0,0-.425-1.6,2.827,2.827,0,0,0-1.215-1.082,4.185,4.185,0,0,0-1.832-.381Zm-3.67,0v9.243h1.905v-9.243Zm-3.789,1.542-4.57,6.583v1.117h7.039v-1.53h-4.659l4.558-6.621v-1.092h-6.932v1.542Zm11.064,2.9h-1.7v-2.9h1.746a1.5,1.5,0,0,1,1.1.432,1.532,1.532,0,0,1,.4,1.1,1.3,1.3,0,0,1-.4,1.016A1.685,1.685,0,0,1,4855.1-4006.144Z" transform="translate(-4814 4054.073)"/><path class="a" d="M50.245,10H26.355A3.37,3.37,0,0,0,23,13.355V37.164h2.7V14.991A2.271,2.271,0,0,1,27.909,12.7H50.164V28.491a3.424,3.424,0,0,0,3.355,3.355H69.227v38.7a2.2,2.2,0,0,1-2.209,2.209H27.991a2.2,2.2,0,0,1-2.209-2.209V59.091H23V72.1a3.37,3.37,0,0,0,3.355,3.355H68.736A3.318,3.318,0,0,0,72.091,72.1V31.845Zm4.091,19.227a1.451,1.451,0,0,1-1.473-1.391V16.382L65.791,29.227Z" transform="translate(-1.091)"/></g></svg>